<svg width="14" height="12" viewBox="0 0 14 12" fill="none" xmlns="http://www.w3.org/2000/svg">
<path d="M13.7217 5.59688C12.2405 2.47656 10.0014 0.90625 6.99985 0.90625C3.99672 0.90625 1.75922 2.47656 0.277971 5.59844C0.218558 5.72425 0.187744 5.86165 0.187744 6.00078C0.187744 6.13991 0.218558 6.27732 0.277971 6.40312C1.75922 9.52344 3.99828 11.0938 6.99985 11.0938C10.003 11.0938 12.2405 9.52344 13.7217 6.40156C13.842 6.14844 13.842 5.85469 13.7217 5.59688V5.59688ZM6.99985 9.96875C4.47953 9.96875 2.63422 8.69062 1.33266 6C2.63422 3.30938 4.47953 2.03125 6.99985 2.03125C9.52016 2.03125 11.3655 3.30938 12.667 6C11.367 8.69062 9.52172 9.96875 6.99985 9.96875ZM6.93735 3.25C5.4186 3.25 4.18735 4.48125 4.18735 6C4.18735 7.51875 5.4186 8.75 6.93735 8.75C8.4561 8.75 9.68735 7.51875 9.68735 6C9.68735 4.48125 8.4561 3.25 6.93735 3.25ZM6.93735 7.75C5.97016 7.75 5.18735 6.96719 5.18735 6C5.18735 5.03281 5.97016 4.25 6.93735 4.25C7.90453 4.25 8.68735 5.03281 8.68735 6C8.68735 6.96719 7.90453 7.75 6.93735 7.75Z" fill="black"/>
</svg>
